<?xml version="1.0" encoding="UTF-8"?>
<svg xmlns="http://www.w3.org/2000/svg" xmlns:xlink="http://www.w3.org/1999/xlink" width="32px" height="32px" viewBox="0 0 32 32" version="1.1">
<g id="surface1">
<path style=" stroke:none;fill-rule:nonzero;fill:rgb(1.960784%,31.37255%,36.470589%);fill-opacity:1;" d="M 32.027344 6.6875 C 32.027344 12.90625 32.027344 19.125 32.015625 25.359375 C 31.957031 25.992188 31.847656 26.597656 31.644531 27.183594 C 30.765625 29.738281 28.511719 31.589844 25.835938 31.953125 C 25.671875 31.976562 25.503906 32 25.339844 32.027344 C 19.136719 32.027344 12.9375 32.027344 6.71875 32.015625 C 6.621094 31.996094 6.542969 31.988281 6.460938 31.976562 C 4.378906 31.746094 2.703125 30.785156 1.4375 29.121094 C 0.644531 28.078125 0.1875 26.894531 0.0703125 25.582031 C 0.0585938 25.476562 0.0390625 25.371094 0.0273438 25.261719 C 0.0273438 19.09375 0.0273438 12.929688 0.0351562 6.742188 C 0.0664062 6.527344 0.078125 6.328125 0.109375 6.132812 C 0.3125 4.828125 0.8125 3.652344 1.664062 2.640625 C 2.882812 1.195312 4.429688 0.34375 6.304688 0.09375 C 6.46875 0.0742188 6.628906 0.046875 6.789062 0.0273438 C 12.921875 0.0273438 19.054688 0.0273438 25.207031 0.0351562 C 25.519531 0.078125 25.816406 0.09375 26.109375 0.144531 C 28.066406 0.511719 29.621094 1.511719 30.765625 3.136719 C 31.457031 4.109375 31.859375 5.199219 31.980469 6.390625 C 31.992188 6.488281 32.011719 6.585938 32.027344 6.6875 M 3.957031 17.585938 C 3.96875 17.578125 3.976562 17.570312 4.003906 17.554688 C 4.15625 17.40625 4.300781 17.25 4.460938 17.113281 C 6.207031 15.675781 8.164062 15.226562 10.34375 15.886719 C 11.433594 16.214844 12.414062 16.769531 13.347656 17.40625 C 14.355469 18.09375 15.34375 18.808594 16.355469 19.488281 C 17.378906 20.175781 18.464844 20.746094 19.65625 21.09375 C 20.480469 21.328125 21.316406 21.457031 22.175781 21.375 C 23.488281 21.246094 24.609375 20.691406 25.566406 19.792969 C 26.1875 19.207031 26.6875 18.519531 27.117188 17.78125 C 27.207031 17.628906 27.285156 17.472656 27.367188 17.316406 C 27.347656 17.300781 27.324219 17.28125 27.304688 17.261719 C 27.285156 17.304688 27.273438 17.355469 27.242188 17.386719 C 26.671875 17.972656 26.027344 18.464844 25.304688 18.847656 C 23.699219 19.695312 22.027344 19.890625 20.28125 19.335938 C 19.179688 18.988281 18.195312 18.410156 17.253906 17.757812 C 17.242188 17.753906 17.242188 17.738281 17.234375 17.722656 C 17.4375 17.578125 17.636719 17.433594 17.839844 17.289062 C 18.652344 16.714844 19.5 16.199219 20.421875 15.808594 C 21.285156 15.441406 22.179688 15.195312 23.121094 15.160156 C 24.578125 15.109375 25.875 15.574219 27.054688 16.414062 C 27.164062 16.488281 27.273438 16.5625 27.375 16.648438 C 27.382812 16.648438 27.390625 16.648438 27.398438 16.652344 C 27.390625 16.648438 27.386719 16.644531 27.382812 16.621094 C 26.667969 15.445312 25.644531 14.664062 24.324219 14.289062 C 23.011719 13.917969 21.722656 14.078125 20.457031 14.53125 C 19.320312 14.933594 18.316406 15.578125 17.371094 16.316406 C 17.03125 16.578125 16.699219 16.84375 16.355469 17.117188 C 16.160156 16.972656 15.96875 16.832031 15.777344 16.691406 C 14.890625 16.035156 13.996094 15.386719 13.007812 14.882812 C 11.964844 14.355469 10.878906 13.980469 9.703125 13.914062 C 7.136719 13.769531 5.027344 15.25 3.957031 17.554688 C 3.953125 17.5625 3.949219 17.566406 3.949219 17.582031 C 3.949219 17.585938 3.953125 17.585938 3.953125 17.585938 C 3.949219 17.582031 3.945312 17.578125 3.957031 17.585938 M 5.230469 18.890625 C 5.214844 18.890625 5.203125 18.890625 5.1875 18.894531 C 5.199219 18.902344 5.207031 18.914062 5.230469 18.9375 C 6.046875 19.851562 7.027344 20.527344 8.171875 20.96875 C 9.40625 21.441406 10.664062 21.542969 11.945312 21.152344 C 12.859375 20.875 13.703125 20.453125 14.496094 19.925781 C 14.75 19.757812 14.996094 19.578125 15.261719 19.390625 C 15.207031 19.347656 15.167969 19.320312 15.132812 19.292969 C 14.902344 19.128906 14.667969 18.96875 14.4375 18.796875 C 14.367188 18.746094 14.324219 18.746094 14.25 18.792969 C 13.601562 19.226562 12.917969 19.59375 12.191406 19.886719 C 11.367188 20.21875 10.519531 20.429688 9.625 20.425781 C 8.582031 20.421875 7.601562 20.15625 6.65625 19.726562 C 6.15625 19.5 5.6875 19.214844 5.230469 18.890625 M 22.605469 12.007812 C 22.933594 12.375 23.34375 12.527344 23.832031 12.457031 C 24.472656 12.367188 24.988281 11.742188 24.945312 11.109375 C 24.902344 10.386719 24.347656 9.828125 23.660156 9.824219 C 23.105469 9.824219 22.679688 10.0625 22.429688 10.5625 C 22.179688 11.066406 22.253906 11.550781 22.605469 12.007812 Z M 22.605469 12.007812 "/>
<path style=" stroke:none;fill-rule:nonzero;fill:rgb(99.215686%,99.215686%,99.215686%);fill-opacity:1;" d="M 6.777344 0.0273438 C 6.628906 0.046875 6.46875 0.0742188 6.304688 0.09375 C 4.429688 0.34375 2.882812 1.195312 1.664062 2.640625 C 0.8125 3.652344 0.3125 4.828125 0.109375 6.132812 C 0.078125 6.328125 0.0664062 6.527344 0.0351562 6.730469 C 0.0273438 4.5 0.0273438 2.265625 0.0273438 0.0273438 C 2.273438 0.0273438 4.519531 0.0273438 6.777344 0.0273438 Z M 6.777344 0.0273438 "/>
<path style=" stroke:none;fill-rule:nonzero;fill:rgb(99.215686%,99.215686%,99.215686%);fill-opacity:1;" d="M 0.0273438 25.273438 C 0.0390625 25.371094 0.0585938 25.476562 0.0703125 25.582031 C 0.1875 26.894531 0.644531 28.078125 1.4375 29.121094 C 2.703125 30.785156 4.378906 31.746094 6.460938 31.976562 C 6.542969 31.988281 6.621094 31.996094 6.707031 32.015625 C 4.484375 32.027344 2.257812 32.027344 0.0273438 32.027344 C 0.0273438 29.78125 0.0273438 27.535156 0.0273438 25.273438 Z M 0.0273438 25.273438 "/>
<path style=" stroke:none;fill-rule:nonzero;fill:rgb(99.215686%,99.215686%,99.215686%);fill-opacity:1;" d="M 32.027344 6.675781 C 32.011719 6.585938 31.992188 6.488281 31.980469 6.390625 C 31.859375 5.199219 31.457031 4.109375 30.765625 3.136719 C 29.621094 1.511719 28.066406 0.511719 26.109375 0.144531 C 25.816406 0.09375 25.519531 0.078125 25.21875 0.0351562 C 27.480469 0.0273438 29.75 0.0273438 32.027344 0.0273438 C 32.027344 2.238281 32.027344 4.449219 32.027344 6.675781 Z M 32.027344 6.675781 "/>
<path style=" stroke:none;fill-rule:nonzero;fill:rgb(99.215686%,99.215686%,99.215686%);fill-opacity:1;" d="M 25.351562 32.027344 C 25.503906 32 25.671875 31.976562 25.835938 31.953125 C 28.511719 31.589844 30.765625 29.738281 31.644531 27.183594 C 31.847656 26.597656 31.957031 25.992188 32.015625 25.371094 C 32.027344 27.582031 32.027344 29.800781 32.027344 32.027344 C 29.804688 32.027344 27.585938 32.027344 25.351562 32.027344 Z M 25.351562 32.027344 "/>
<path style=" stroke:none;fill-rule:nonzero;fill:rgb(83.529413%,92.941177%,91.764706%);fill-opacity:1;" d="M 27.382812 16.636719 C 27.273438 16.5625 27.164062 16.488281 27.054688 16.414062 C 25.875 15.574219 24.578125 15.109375 23.121094 15.160156 C 22.179688 15.195312 21.285156 15.441406 20.421875 15.808594 C 19.5 16.199219 18.652344 16.714844 17.839844 17.289062 C 17.636719 17.433594 17.4375 17.578125 17.234375 17.722656 C 17.242188 17.738281 17.242188 17.753906 17.253906 17.757812 C 18.195312 18.410156 19.179688 18.988281 20.28125 19.335938 C 22.027344 19.890625 23.699219 19.695312 25.304688 18.847656 C 26.027344 18.464844 26.671875 17.972656 27.242188 17.386719 C 27.273438 17.355469 27.285156 17.304688 27.304688 17.261719 C 27.324219 17.28125 27.347656 17.300781 27.367188 17.316406 C 27.285156 17.472656 27.207031 17.628906 27.117188 17.78125 C 26.6875 18.519531 26.1875 19.207031 25.566406 19.792969 C 24.609375 20.691406 23.488281 21.246094 22.175781 21.375 C 21.316406 21.457031 20.480469 21.328125 19.65625 21.09375 C 18.464844 20.746094 17.378906 20.175781 16.355469 19.488281 C 15.34375 18.808594 14.355469 18.09375 13.347656 17.40625 C 12.414062 16.769531 11.433594 16.214844 10.34375 15.886719 C 8.164062 15.226562 6.207031 15.675781 4.460938 17.113281 C 4.300781 17.25 4.15625 17.40625 3.988281 17.554688 C 3.972656 17.550781 3.972656 17.546875 3.96875 17.542969 C 5.027344 15.25 7.136719 13.769531 9.703125 13.914062 C 10.878906 13.980469 11.964844 14.355469 13.007812 14.882812 C 13.996094 15.386719 14.890625 16.035156 15.777344 16.691406 C 15.96875 16.832031 16.160156 16.972656 16.355469 17.117188 C 16.699219 16.84375 17.03125 16.578125 17.371094 16.316406 C 18.316406 15.578125 19.320312 14.933594 20.457031 14.53125 C 21.722656 14.078125 23.011719 13.917969 24.324219 14.289062 C 25.644531 14.664062 26.667969 15.445312 27.382812 16.628906 C 27.382812 16.636719 27.382812 16.636719 27.382812 16.636719 Z M 27.382812 16.636719 "/>
<path style=" stroke:none;fill-rule:nonzero;fill:rgb(59.215689%,80.784315%,80.392158%);fill-opacity:1;" d="M 5.238281 18.902344 C 5.6875 19.214844 6.15625 19.5 6.65625 19.726562 C 7.601562 20.15625 8.582031 20.421875 9.625 20.425781 C 10.519531 20.429688 11.367188 20.21875 12.191406 19.886719 C 12.917969 19.59375 13.601562 19.226562 14.25 18.792969 C 14.324219 18.746094 14.367188 18.746094 14.4375 18.796875 C 14.667969 18.96875 14.902344 19.128906 15.132812 19.292969 C 15.167969 19.320312 15.207031 19.347656 15.261719 19.390625 C 14.996094 19.578125 14.75 19.757812 14.496094 19.925781 C 13.703125 20.453125 12.859375 20.875 11.945312 21.152344 C 10.664062 21.542969 9.40625 21.441406 8.171875 20.96875 C 7.027344 20.527344 6.046875 19.851562 5.226562 18.925781 C 5.230469 18.910156 5.234375 18.90625 5.238281 18.902344 Z M 5.238281 18.902344 "/>
<path style=" stroke:none;fill-rule:nonzero;fill:rgb(83.137256%,92.941177%,91.764706%);fill-opacity:1;" d="M 22.601562 12 C 22.253906 11.550781 22.179688 11.066406 22.429688 10.5625 C 22.679688 10.0625 23.105469 9.824219 23.660156 9.824219 C 24.347656 9.828125 24.902344 10.386719 24.945312 11.109375 C 24.988281 11.742188 24.472656 12.367188 23.832031 12.457031 C 23.34375 12.527344 22.933594 12.375 22.601562 12 Z M 22.601562 12 "/>
<path style=" stroke:none;fill-rule:nonzero;fill:rgb(59.215689%,80.784315%,80.392158%);fill-opacity:1;" d="M 5.222656 18.917969 C 5.207031 18.914062 5.199219 18.902344 5.1875 18.894531 C 5.203125 18.890625 5.214844 18.890625 5.234375 18.898438 C 5.234375 18.90625 5.230469 18.910156 5.222656 18.917969 Z M 5.222656 18.917969 "/>
<path style=" stroke:none;fill-rule:nonzero;fill:rgb(83.529413%,92.941177%,91.764706%);fill-opacity:1;" d="M 27.382812 16.636719 C 27.386719 16.644531 27.390625 16.648438 27.398438 16.652344 C 27.390625 16.648438 27.382812 16.648438 27.378906 16.640625 C 27.382812 16.636719 27.382812 16.636719 27.382812 16.636719 Z M 27.382812 16.636719 "/>
<path style=" stroke:none;fill-rule:nonzero;fill:rgb(83.529413%,92.941177%,91.764706%);fill-opacity:1;" d="M 3.941406 17.574219 C 3.949219 17.566406 3.953125 17.5625 3.964844 17.550781 C 3.972656 17.546875 3.972656 17.550781 3.984375 17.558594 C 3.976562 17.570312 3.96875 17.578125 3.949219 17.578125 C 3.941406 17.574219 3.941406 17.574219 3.941406 17.574219 Z M 3.941406 17.574219 "/>
<path style=" stroke:none;fill-rule:nonzero;fill:rgb(83.529413%,92.941177%,91.764706%);fill-opacity:1;" d="M 3.941406 17.574219 C 3.945312 17.578125 3.949219 17.582031 3.953125 17.585938 C 3.953125 17.585938 3.949219 17.585938 3.945312 17.578125 C 3.941406 17.574219 3.941406 17.574219 3.941406 17.574219 Z M 3.941406 17.574219 "/>
</g>
</svg>
