<svg version="1.1" id="Layer_1" xmlns="http://www.w3.org/2000/svg" xmlns:xlink="http://www.w3.org/1999/xlink" x="0px" y="0px"
	 width="100%" viewBox="0 0 1254 1254" enable-background="new 0 0 1254 1254" xml:space="preserve">
<path fill="#05505D" opacity="1.000000" stroke="none" 
	d="
M1255.000000,262.000000 
	C1255.000000,505.694702 1255.000000,749.389404 1254.666504,993.784546 
	C1252.390381,1018.634644 1248.037964,1042.275391 1240.112671,1065.247925 
	C1205.578735,1165.349243 1117.266235,1237.916626 1012.431091,1252.206055 
	C1005.947571,1253.089722 999.476746,1254.066528 993.000000,1255.000000 
	C749.971985,1255.000000 506.943939,1255.000000 263.257996,1254.639282 
	C259.463562,1253.899170 256.329926,1253.494385 253.190170,1253.144165 
	C171.550430,1244.035156 105.932297,1206.426025 56.380646,1141.222900 
	C25.283451,1100.303345 7.336087,1053.921021 2.692359,1002.563232 
	C2.312203,998.358887 1.572598,994.186951 1.000006,990.000000 
	C1.000000,748.305298 1.000000,506.610596 1.353774,264.247864 
	C2.541755,255.806961 3.062853,247.985458 4.260858,240.269043 
	C12.192919,189.178116 31.787523,143.157974 65.212677,103.500191 
	C112.944733,46.867722 173.569519,13.417167 247.126389,3.684139 
	C253.425705,2.850614 259.709167,1.897541 266.000000,1.000000 
	C506.361359,1.000000 746.722717,1.000000 987.766968,1.353039 
	C1000.016052,3.009914 1011.713806,3.606776 1023.127075,5.731803 
	C1099.796265,20.006830 1160.740723,59.218834 1205.654175,122.855888 
	C1232.646606,161.101044 1248.559448,203.756943 1253.254395,250.467850 
	C1253.642700,254.331360 1254.409302,258.156830 1255.000000,262.000000 
M155.079193,689.082153 
	C155.468002,688.805237 155.856812,688.528259 156.846115,687.957275 
	C162.833878,682.171265 168.461151,675.948181 174.864777,670.666443 
	C243.234558,614.274902 319.917542,596.759705 405.352722,622.577881 
	C447.994812,635.464172 486.403595,657.196472 522.998779,682.114746 
	C562.512085,709.019897 601.296814,737.001526 640.978149,763.651672 
	C681.074402,790.580627 723.537537,813.053467 770.253113,826.550598 
	C802.516724,835.872192 835.343201,840.846252 868.965759,837.585571 
	C920.476624,832.590027 964.376709,810.914795 1001.811157,775.644592 
	C1026.261963,752.607483 1045.820801,725.733459 1062.681519,696.818420 
	C1066.144897,690.878967 1069.219971,684.713013 1072.473999,678.651428 
	C1071.646973,677.940735 1070.820068,677.230042 1069.993164,676.519348 
	C1069.197876,678.151550 1068.757446,680.129028 1067.554688,681.364868 
	C1045.198608,704.338989 1019.987427,723.567871 991.612671,738.539856 
	C928.645874,771.764404 863.193420,779.392273 794.816895,757.739502 
	C751.593201,744.051819 713.067078,721.458069 676.069153,695.881226 
	C675.749023,695.659912 675.682495,695.071716 675.414246,694.466980 
	C683.336853,688.792786 691.150024,683.116028 699.045654,677.556396 
	C730.975464,655.073364 764.180420,634.802429 800.231018,619.500793 
	C834.077942,605.134460 869.132202,595.430298 906.024536,594.108398 
	C963.166199,592.060974 1014.030640,610.354492 1060.189697,643.158203 
	C1064.429321,646.171082 1068.790527,649.012573 1072.823486,652.337891 
	C1073.084839,652.410095 1073.346313,652.482300 1073.607666,652.554565 
	C1073.398804,652.374695 1073.189819,652.194824 1073.044800,651.302917 
	C1045.026855,605.237549 1004.974365,574.724365 953.242737,560.028381 
	C901.762146,545.403625 851.271667,551.723511 801.675232,569.373413 
	C757.071594,585.246521 717.779541,610.400208 680.718628,639.351379 
	C667.486206,649.688232 654.336487,660.130798 640.902588,670.719360 
	C633.282715,665.124329 625.767944,659.648865 618.297363,654.113831 
	C583.496521,628.330017 548.441101,602.972412 509.667328,583.241028 
	C468.870209,562.479858 426.314789,547.920898 380.241974,545.308655 
	C279.704590,539.608215 196.940353,597.548889 155.119583,687.884155 
	C154.907272,688.167053 154.694946,688.449890 154.736130,689.032654 
	C154.812103,689.093140 154.888077,689.153687 154.964035,689.214172 
	C154.775055,689.045227 154.586075,688.876221 155.079193,689.082153 
M204.903244,740.259888 
	C204.380402,740.293884 203.857559,740.327881 203.334717,740.361877 
	C203.729218,740.755920 204.123734,741.150024 204.892715,742.084534 
	C236.917221,777.895996 275.433807,804.407410 320.195190,821.655090 
	C368.598206,840.306091 417.849792,844.281555 468.032745,828.945435 
	C503.850403,817.999512 536.982361,801.513428 568.088867,780.839722 
	C578.039307,774.226562 587.676636,767.142395 598.012390,759.883911 
	C595.867493,758.261963 594.471130,757.152527 593.021118,756.118225 
	C583.932800,749.635925 574.743835,743.289673 565.789795,736.627380 
	C563.065796,734.600586 561.254333,734.553467 558.393066,736.467834 
	C532.978638,753.471619 506.159058,767.867493 477.785034,779.334778 
	C445.514435,792.376770 412.237854,800.653015 377.210144,800.461060 
	C336.350922,800.237122 297.842407,789.941406 260.863434,773.098145 
	C241.233307,764.156860 222.955444,752.932251 204.903244,740.259888 
M885.920898,470.565491 
	C898.773010,484.950775 914.776611,490.871124 933.859741,488.165955 
	C958.974243,484.605804 979.180359,460.099335 977.601440,435.290131 
	C975.803528,407.040466 954.107544,385.210083 927.186584,385.062683 
	C905.458740,384.943726 888.709473,394.363190 879.012207,413.886322 
	C869.219238,433.602173 872.006958,452.608490 885.920898,470.565491 
z"/>
<path fill="#FDFDFD" opacity="1.000000" stroke="none" 
	d="
M265.531342,1.000000 
	C259.709167,1.897541 253.425705,2.850614 247.126389,3.684139 
	C173.569519,13.417167 112.944733,46.867722 65.212677,103.500191 
	C31.787523,143.157974 12.192919,189.178116 4.260858,240.269043 
	C3.062853,247.985458 2.541755,255.806961 1.353774,263.789917 
	C1.000000,176.406021 1.000000,88.812050 1.000000,1.000000 
	C89.020775,1.000000 177.041733,1.000000 265.531342,1.000000 
z"/>
<path fill="#FDFDFD" opacity="1.000000" stroke="none" 
	d="
M1.000006,990.468628 
	C1.572598,994.186951 2.312203,998.358887 2.692359,1002.563232 
	C7.336087,1053.921021 25.283451,1100.303345 56.380646,1141.222900 
	C105.932297,1206.426025 171.550430,1244.035156 253.190170,1253.144165 
	C256.329926,1253.494385 259.463562,1253.899170 262.800049,1254.639282 
	C175.739212,1255.000000 88.478409,1255.000000 1.000000,1255.000000 
	C1.000000,1166.979248 1.000000,1078.958252 1.000006,990.468628 
z"/>
<path fill="#FDFDFD" opacity="1.000000" stroke="none" 
	d="
M1255.000000,261.531342 
	C1254.409302,258.156830 1253.642700,254.331360 1253.254395,250.467850 
	C1248.559448,203.756943 1232.646606,161.101044 1205.654175,122.855888 
	C1160.740723,59.218834 1099.796265,20.006830 1023.127075,5.731803 
	C1011.713806,3.606776 1000.016052,3.009914 988.224976,1.353039 
	C1076.926147,1.000000 1165.852417,1.000000 1255.000000,1.000000 
	C1255.000000,87.687439 1255.000000,174.375061 1255.000000,261.531342 
z"/>
<path fill="#FDFDFD" opacity="1.000000" stroke="none" 
	d="
M993.468628,1255.000000 
	C999.476746,1254.066528 1005.947571,1253.089722 1012.431091,1252.206055 
	C1117.266235,1237.916626 1205.578735,1165.349243 1240.112671,1065.247925 
	C1248.037964,1042.275391 1252.390381,1018.634644 1254.666504,994.242493 
	C1255.000000,1080.927124 1255.000000,1167.854370 1255.000000,1255.000000 
	C1167.979248,1255.000000 1080.958252,1255.000000 993.468628,1255.000000 
z"/>
<path fill="#D5EDEA" opacity="1.000000" stroke="none" 
	d="
M1073.095337,651.933655 
	C1068.790527,649.012573 1064.429321,646.171082 1060.189697,643.158203 
	C1014.030640,610.354492 963.166199,592.060974 906.024536,594.108398 
	C869.132202,595.430298 834.077942,605.134460 800.231018,619.500793 
	C764.180420,634.802429 730.975464,655.073364 699.045654,677.556396 
	C691.150024,683.116028 683.336853,688.792786 675.414246,694.466980 
	C675.682495,695.071716 675.749023,695.659912 676.069153,695.881226 
	C713.067078,721.458069 751.593201,744.051819 794.816895,757.739502 
	C863.193420,779.392273 928.645874,771.764404 991.612671,738.539856 
	C1019.987427,723.567871 1045.198608,704.338989 1067.554688,681.364868 
	C1068.757446,680.129028 1069.197876,678.151550 1069.993164,676.519348 
	C1070.820068,677.230042 1071.646973,677.940735 1072.473999,678.651428 
	C1069.219971,684.713013 1066.144897,690.878967 1062.681519,696.818420 
	C1045.820801,725.733459 1026.261963,752.607483 1001.811157,775.644592 
	C964.376709,810.914795 920.476624,832.590027 868.965759,837.585571 
	C835.343201,840.846252 802.516724,835.872192 770.253113,826.550598 
	C723.537537,813.053467 681.074402,790.580627 640.978149,763.651672 
	C601.296814,737.001526 562.512085,709.019897 522.998779,682.114746 
	C486.403595,657.196472 447.994812,635.464172 405.352722,622.577881 
	C319.917542,596.759705 243.234558,614.274902 174.864777,670.666443 
	C168.461151,675.948181 162.833878,682.171265 156.362442,687.918274 
	C155.754135,687.757690 155.629486,687.636108 155.504822,687.514526 
	C196.940353,597.548889 279.704590,539.608215 380.241974,545.308655 
	C426.314789,547.920898 468.870209,562.479858 509.667328,583.241028 
	C548.441101,602.972412 583.496521,628.330017 618.297363,654.113831 
	C625.767944,659.648865 633.282715,665.124329 640.902588,670.719360 
	C654.336487,660.130798 667.486206,649.688232 680.718628,639.351379 
	C717.779541,610.400208 757.071594,585.246521 801.675232,569.373413 
	C851.271667,551.723511 901.762146,545.403625 953.242737,560.028381 
	C1004.974365,574.724365 1045.026855,605.237549 1073.040771,651.637573 
	C1073.036621,651.972168 1073.095337,651.933655 1073.095337,651.933655 
z"/>
<path fill="#97CECD" opacity="1.000000" stroke="none" 
	d="
M205.214172,740.762756 
	C222.955444,752.932251 241.233307,764.156860 260.863434,773.098145 
	C297.842407,789.941406 336.350922,800.237122 377.210144,800.461060 
	C412.237854,800.653015 445.514435,792.376770 477.785034,779.334778 
	C506.159058,767.867493 532.978638,753.471619 558.393066,736.467834 
	C561.254333,734.553467 563.065796,734.600586 565.789795,736.627380 
	C574.743835,743.289673 583.932800,749.635925 593.021118,756.118225 
	C594.471130,757.152527 595.867493,758.261963 598.012390,759.883911 
	C587.676636,767.142395 578.039307,774.226562 568.088867,780.839722 
	C536.982361,801.513428 503.850403,817.999512 468.032745,828.945435 
	C417.849792,844.281555 368.598206,840.306091 320.195190,821.655090 
	C275.433807,804.407410 236.917221,777.895996 204.880630,741.619995 
	C204.983749,741.024658 205.098953,740.893738 205.214172,740.762756 
z"/>
<path fill="#D4EDEA" opacity="1.000000" stroke="none" 
	d="
M885.693481,470.294250 
	C872.006958,452.608490 869.219238,433.602173 879.012207,413.886322 
	C888.709473,394.363190 905.458740,384.943726 927.186584,385.062683 
	C954.107544,385.210083 975.803528,407.040466 977.601440,435.290131 
	C979.180359,460.099335 958.974243,484.605804 933.859741,488.165955 
	C914.776611,490.871124 898.773010,484.950775 885.693481,470.294250 
z"/>
<path fill="#97CECD" opacity="1.000000" stroke="none" 
	d="
M204.693390,741.349792 
	C204.123734,741.150024 203.729218,740.755920 203.334717,740.361816 
	C203.857559,740.327881 204.380402,740.293884 205.058716,740.511353 
	C205.098953,740.893738 204.983749,741.024658 204.693390,741.349792 
z"/>
<path fill="#D5EDEA" opacity="1.000000" stroke="none" 
	d="
M1073.008789,651.993530 
	C1073.189819,652.194824 1073.398804,652.374695 1073.607666,652.554565 
	C1073.346313,652.482300 1073.084839,652.410095 1072.959473,652.135742 
	C1073.095337,651.933655 1073.036621,651.972168 1073.008789,651.993530 
z"/>
<path fill="#D5EDEA" opacity="1.000000" stroke="none" 
	d="
M154.482635,688.732788 
	C154.694946,688.449890 154.907272,688.167053 155.312195,687.699341 
	C155.629486,687.636108 155.754135,687.757690 156.062195,688.065308 
	C155.856812,688.528259 155.468002,688.805237 154.765945,688.898682 
	C154.452698,688.715210 154.482635,688.732788 154.482635,688.732788 
z"/>
<path fill="#D5EDEA" opacity="1.000000" stroke="none" 
	d="
M154.424896,688.711182 
	C154.586075,688.876221 154.775055,689.045227 154.964050,689.214172 
	C154.888077,689.153687 154.812103,689.093140 154.609375,688.882690 
	C154.482635,688.732788 154.452698,688.715210 154.424896,688.711182 
z"/>
</svg>