<?xml version="1.0" encoding="UTF-8"?>
<svg xmlns="http://www.w3.org/2000/svg" xmlns:xlink="http://www.w3.org/1999/xlink" width="16px" height="16px" viewBox="0 0 16 16" version="1.1">
<g id="surface1">
<path style=" stroke:none;fill-rule:nonzero;fill:rgb(1.960784%,31.37255%,36.470589%);fill-opacity:1;" d="M 16.011719 3.34375 C 16.011719 6.453125 16.011719 9.5625 16.007812 12.679688 C 15.980469 12.996094 15.925781 13.296875 15.824219 13.589844 C 15.382812 14.867188 14.253906 15.792969 12.917969 15.976562 C 12.835938 15.988281 12.753906 16 12.667969 16.011719 C 9.570312 16.011719 6.46875 16.011719 3.359375 16.007812 C 3.308594 16 3.269531 15.992188 3.230469 15.988281 C 2.1875 15.871094 1.351562 15.394531 0.71875 14.5625 C 0.324219 14.039062 0.09375 13.445312 0.0351562 12.792969 C 0.03125 12.738281 0.0195312 12.683594 0.0117188 12.632812 C 0.0117188 9.546875 0.0117188 6.464844 0.015625 3.371094 C 0.03125 3.265625 0.0390625 3.164062 0.0546875 3.066406 C 0.15625 2.414062 0.40625 1.828125 0.832031 1.320312 C 1.441406 0.597656 2.214844 0.171875 3.152344 0.046875 C 3.234375 0.0351562 3.3125 0.0234375 3.394531 0.0117188 C 6.460938 0.0117188 9.527344 0.0117188 12.601562 0.015625 C 12.757812 0.0390625 12.910156 0.046875 13.054688 0.0742188 C 14.03125 0.253906 14.808594 0.753906 15.382812 1.566406 C 15.726562 2.054688 15.929688 2.601562 15.992188 3.195312 C 15.996094 3.246094 16.003906 3.292969 16.011719 3.34375 M 1.980469 8.792969 C 1.984375 8.789062 1.988281 8.785156 2 8.777344 C 2.078125 8.703125 2.148438 8.625 2.230469 8.558594 C 3.101562 7.835938 4.082031 7.613281 5.171875 7.945312 C 5.714844 8.109375 6.207031 8.386719 6.671875 8.703125 C 7.175781 9.046875 7.671875 9.402344 8.179688 9.742188 C 8.691406 10.085938 9.230469 10.375 9.828125 10.546875 C 10.238281 10.664062 10.660156 10.726562 11.085938 10.6875 C 11.746094 10.625 12.304688 10.347656 12.78125 9.898438 C 13.09375 9.601562 13.34375 9.257812 13.558594 8.890625 C 13.601562 8.816406 13.640625 8.738281 13.683594 8.660156 C 13.671875 8.648438 13.664062 8.640625 13.652344 8.632812 C 13.640625 8.652344 13.636719 8.679688 13.621094 8.695312 C 13.335938 8.988281 13.015625 9.230469 12.652344 9.421875 C 11.847656 9.847656 11.011719 9.945312 10.140625 9.667969 C 9.589844 9.492188 9.097656 9.207031 8.625 8.878906 C 8.621094 8.875 8.621094 8.867188 8.617188 8.859375 C 8.71875 8.789062 8.820312 8.714844 8.917969 8.644531 C 9.328125 8.359375 9.75 8.097656 10.210938 7.90625 C 10.640625 7.722656 11.089844 7.597656 11.558594 7.582031 C 12.289062 7.554688 12.9375 7.789062 13.527344 8.207031 C 13.582031 8.246094 13.636719 8.28125 13.6875 8.324219 C 13.691406 8.324219 13.695312 8.324219 13.699219 8.324219 C 13.695312 8.324219 13.691406 8.320312 13.691406 8.308594 C 13.332031 7.722656 12.824219 7.332031 12.164062 7.144531 C 11.503906 6.957031 10.863281 7.039062 10.230469 7.265625 C 9.660156 7.46875 9.160156 7.789062 8.683594 8.15625 C 8.515625 8.289062 8.347656 8.421875 8.175781 8.558594 C 8.082031 8.488281 7.984375 8.417969 7.890625 8.347656 C 7.445312 8.015625 6.996094 7.695312 6.503906 7.441406 C 5.980469 7.175781 5.4375 6.992188 4.851562 6.957031 C 3.570312 6.886719 2.511719 7.625 1.980469 8.777344 C 1.976562 8.78125 1.972656 8.785156 1.972656 8.792969 C 1.976562 8.792969 1.976562 8.792969 1.976562 8.792969 C 1.976562 8.792969 1.972656 8.789062 1.980469 8.792969 M 2.613281 9.445312 C 2.609375 9.445312 2.601562 9.445312 2.59375 9.445312 C 2.597656 9.453125 2.605469 9.457031 2.613281 9.46875 C 3.023438 9.925781 3.515625 10.261719 4.085938 10.484375 C 4.703125 10.722656 5.332031 10.773438 5.972656 10.578125 C 6.429688 10.4375 6.851562 10.226562 7.25 9.960938 C 7.375 9.878906 7.5 9.789062 7.628906 9.695312 C 7.601562 9.675781 7.585938 9.660156 7.566406 9.648438 C 7.449219 9.566406 7.332031 9.484375 7.21875 9.398438 C 7.183594 9.371094 7.160156 9.371094 7.125 9.398438 C 6.800781 9.613281 6.457031 9.796875 6.097656 9.945312 C 5.683594 10.109375 5.261719 10.214844 4.8125 10.214844 C 4.292969 10.210938 3.800781 10.078125 3.328125 9.863281 C 3.078125 9.75 2.84375 9.605469 2.613281 9.445312 M 11.304688 6.003906 C 11.46875 6.1875 11.671875 6.261719 11.914062 6.230469 C 12.234375 6.183594 12.492188 5.871094 12.472656 5.554688 C 12.449219 5.195312 12.171875 4.914062 11.832031 4.914062 C 11.554688 4.910156 11.339844 5.03125 11.214844 5.28125 C 11.089844 5.53125 11.125 5.773438 11.304688 6.003906 Z M 11.304688 6.003906 "/>
<path style=" stroke:none;fill-rule:nonzero;fill:rgb(99.215686%,99.215686%,99.215686%);fill-opacity:1;" d="M 3.386719 0.0117188 C 3.3125 0.0234375 3.234375 0.0351562 3.152344 0.046875 C 2.214844 0.171875 1.441406 0.597656 0.832031 1.320312 C 0.40625 1.828125 0.15625 2.414062 0.0546875 3.066406 C 0.0390625 3.164062 0.03125 3.265625 0.015625 3.367188 C 0.0117188 2.25 0.0117188 1.132812 0.0117188 0.0117188 C 1.136719 0.0117188 2.257812 0.0117188 3.386719 0.0117188 Z M 3.386719 0.0117188 "/>
<path style=" stroke:none;fill-rule:nonzero;fill:rgb(99.215686%,99.215686%,99.215686%);fill-opacity:1;" d="M 0.0117188 12.636719 C 0.0195312 12.683594 0.03125 12.738281 0.0351562 12.792969 C 0.09375 13.445312 0.324219 14.039062 0.71875 14.5625 C 1.351562 15.394531 2.1875 15.871094 3.230469 15.988281 C 3.269531 15.992188 3.308594 16 3.351562 16.007812 C 2.242188 16.011719 1.128906 16.011719 0.0117188 16.011719 C 0.0117188 14.890625 0.0117188 13.765625 0.0117188 12.636719 Z M 0.0117188 12.636719 "/>
<path style=" stroke:none;fill-rule:nonzero;fill:rgb(99.215686%,99.215686%,99.215686%);fill-opacity:1;" d="M 16.011719 3.335938 C 16.003906 3.292969 15.996094 3.246094 15.992188 3.195312 C 15.929688 2.601562 15.726562 2.054688 15.382812 1.566406 C 14.808594 0.753906 14.03125 0.253906 13.054688 0.0742188 C 12.910156 0.046875 12.757812 0.0390625 12.609375 0.015625 C 13.742188 0.0117188 14.875 0.0117188 16.011719 0.0117188 C 16.011719 1.117188 16.011719 2.226562 16.011719 3.335938 Z M 16.011719 3.335938 "/>
<path style=" stroke:none;fill-rule:nonzero;fill:rgb(99.215686%,99.215686%,99.215686%);fill-opacity:1;" d="M 12.675781 16.011719 C 12.753906 16 12.835938 15.988281 12.917969 15.976562 C 14.253906 15.792969 15.382812 14.867188 15.824219 13.589844 C 15.925781 13.296875 15.980469 12.996094 16.007812 12.6875 C 16.011719 13.792969 16.011719 14.902344 16.011719 16.011719 C 14.902344 16.011719 13.792969 16.011719 12.675781 16.011719 Z M 12.675781 16.011719 "/>
<path style=" stroke:none;fill-rule:nonzero;fill:rgb(83.529413%,92.941177%,91.764706%);fill-opacity:1;" d="M 13.691406 8.316406 C 13.636719 8.28125 13.582031 8.246094 13.527344 8.207031 C 12.9375 7.789062 12.289062 7.554688 11.558594 7.582031 C 11.089844 7.597656 10.640625 7.722656 10.210938 7.90625 C 9.75 8.097656 9.328125 8.359375 8.917969 8.644531 C 8.820312 8.714844 8.71875 8.789062 8.617188 8.859375 C 8.621094 8.867188 8.621094 8.875 8.625 8.878906 C 9.097656 9.207031 9.589844 9.492188 10.140625 9.667969 C 11.011719 9.945312 11.847656 9.847656 12.652344 9.421875 C 13.015625 9.230469 13.335938 8.988281 13.621094 8.695312 C 13.636719 8.679688 13.640625 8.652344 13.652344 8.632812 C 13.664062 8.640625 13.671875 8.648438 13.683594 8.660156 C 13.640625 8.738281 13.601562 8.816406 13.558594 8.890625 C 13.34375 9.257812 13.09375 9.601562 12.78125 9.898438 C 12.304688 10.347656 11.746094 10.625 11.085938 10.6875 C 10.660156 10.726562 10.238281 10.664062 9.828125 10.546875 C 9.230469 10.375 8.691406 10.085938 8.179688 9.742188 C 7.671875 9.402344 7.175781 9.046875 6.671875 8.703125 C 6.207031 8.386719 5.714844 8.109375 5.171875 7.945312 C 4.082031 7.613281 3.101562 7.835938 2.230469 8.558594 C 2.148438 8.625 2.078125 8.703125 1.996094 8.777344 C 1.988281 8.773438 1.984375 8.773438 1.984375 8.773438 C 2.511719 7.625 3.570312 6.886719 4.851562 6.957031 C 5.4375 6.992188 5.980469 7.175781 6.503906 7.441406 C 6.996094 7.695312 7.445312 8.015625 7.890625 8.347656 C 7.984375 8.417969 8.082031 8.488281 8.175781 8.558594 C 8.347656 8.421875 8.515625 8.289062 8.683594 8.15625 C 9.160156 7.789062 9.660156 7.46875 10.230469 7.265625 C 10.863281 7.039062 11.503906 6.957031 12.164062 7.144531 C 12.824219 7.332031 13.332031 7.722656 13.691406 8.3125 C 13.691406 8.320312 13.691406 8.316406 13.691406 8.316406 Z M 13.691406 8.316406 "/>
<path style=" stroke:none;fill-rule:nonzero;fill:rgb(59.215689%,80.784315%,80.392158%);fill-opacity:1;" d="M 2.617188 9.453125 C 2.84375 9.605469 3.078125 9.75 3.328125 9.863281 C 3.800781 10.078125 4.292969 10.210938 4.8125 10.214844 C 5.261719 10.214844 5.683594 10.109375 6.097656 9.945312 C 6.457031 9.796875 6.800781 9.613281 7.125 9.398438 C 7.160156 9.371094 7.183594 9.371094 7.21875 9.398438 C 7.332031 9.484375 7.449219 9.566406 7.566406 9.648438 C 7.585938 9.660156 7.601562 9.675781 7.628906 9.695312 C 7.5 9.789062 7.375 9.878906 7.25 9.960938 C 6.851562 10.226562 6.429688 10.4375 5.972656 10.578125 C 5.332031 10.773438 4.703125 10.722656 4.085938 10.484375 C 3.515625 10.261719 3.023438 9.925781 2.613281 9.460938 C 2.617188 9.453125 2.617188 9.453125 2.617188 9.453125 Z M 2.617188 9.453125 "/>
<path style=" stroke:none;fill-rule:nonzero;fill:rgb(83.137256%,92.941177%,91.764706%);fill-opacity:1;" d="M 11.300781 6 C 11.125 5.773438 11.089844 5.53125 11.214844 5.28125 C 11.339844 5.03125 11.554688 4.910156 11.832031 4.914062 C 12.171875 4.914062 12.449219 5.195312 12.472656 5.554688 C 12.492188 5.871094 12.234375 6.183594 11.914062 6.230469 C 11.671875 6.261719 11.46875 6.1875 11.300781 6 Z M 11.300781 6 "/>
<path style=" stroke:none;fill-rule:nonzero;fill:rgb(59.215689%,80.784315%,80.392158%);fill-opacity:1;" d="M 2.613281 9.460938 C 2.605469 9.457031 2.597656 9.453125 2.59375 9.445312 C 2.601562 9.445312 2.609375 9.445312 2.617188 9.449219 C 2.617188 9.453125 2.617188 9.453125 2.613281 9.460938 Z M 2.613281 9.460938 "/>
<path style=" stroke:none;fill-rule:nonzero;fill:rgb(83.529413%,92.941177%,91.764706%);fill-opacity:1;" d="M 13.691406 8.320312 C 13.691406 8.320312 13.695312 8.324219 13.699219 8.324219 C 13.695312 8.324219 13.691406 8.324219 13.691406 8.320312 C 13.691406 8.316406 13.691406 8.320312 13.691406 8.320312 Z M 13.691406 8.320312 "/>
<path style=" stroke:none;fill-rule:nonzero;fill:rgb(83.529413%,92.941177%,91.764706%);fill-opacity:1;" d="M 1.972656 8.789062 C 1.972656 8.785156 1.976562 8.78125 1.980469 8.773438 C 1.984375 8.773438 1.988281 8.773438 1.992188 8.777344 C 1.988281 8.785156 1.984375 8.789062 1.976562 8.789062 C 1.96875 8.789062 1.972656 8.789062 1.972656 8.789062 Z M 1.972656 8.789062 "/>
<path style=" stroke:none;fill-rule:nonzero;fill:rgb(83.529413%,92.941177%,91.764706%);fill-opacity:1;" d="M 1.96875 8.789062 C 1.972656 8.789062 1.976562 8.792969 1.976562 8.792969 C 1.976562 8.792969 1.976562 8.792969 1.972656 8.789062 C 1.972656 8.789062 1.96875 8.789062 1.96875 8.789062 Z M 1.96875 8.789062 "/>
</g>
</svg>
