<?xml version="1.0" encoding="UTF-8"?>
<svg xmlns="http://www.w3.org/2000/svg" xmlns:xlink="http://www.w3.org/1999/xlink" width="4096px" height="4096px" viewBox="0 0 4096 4096" version="1.1">
<g id="surface1">
<path style=" stroke:none;fill-rule:nonzero;fill:rgb(1.960784%,31.37255%,36.470589%);fill-opacity:1;" d="M 4099.265625 855.78125 C 4099.265625 1651.773438 4099.265625 2447.765625 4098.175781 3246.046875 C 4090.742188 3327.214844 4076.527344 3404.433594 4050.640625 3479.46875 C 3937.839844 3806.4375 3649.378906 4043.464844 3306.953125 4090.140625 C 3285.773438 4093.027344 3264.636719 4096.21875 3243.484375 4099.265625 C 2449.667969 4099.265625 1655.855469 4099.265625 859.890625 4098.089844 C 847.5 4095.671875 837.261719 4094.347656 827.007812 4093.203125 C 560.34375 4063.453125 346.011719 3940.605469 184.160156 3727.628906 C 82.585938 3593.972656 23.960938 3442.472656 8.792969 3274.71875 C 7.550781 3260.988281 5.136719 3247.359375 3.265625 3233.683594 C 3.265625 2444.226562 3.265625 1654.765625 4.421875 863.125 C 8.300781 835.554688 10.003906 810.007812 13.917969 784.800781 C 39.828125 617.921875 103.828125 467.605469 213.007812 338.066406 C 368.917969 153.085938 566.9375 43.824219 807.199219 12.035156 C 827.777344 9.3125 848.300781 6.199219 868.847656 3.265625 C 1653.953125 3.265625 2439.054688 3.265625 3226.390625 4.417969 C 3266.398438 9.832031 3304.609375 11.78125 3341.890625 18.722656 C 3592.316406 65.347656 3791.382812 193.429688 3938.085938 401.289062 C 4026.253906 526.210938 4078.230469 665.542969 4093.566406 818.113281 C 4094.832031 830.734375 4097.335938 843.230469 4099.265625 855.78125 M 506.542969 2250.78125 C 507.8125 2249.878906 509.082031 2248.972656 512.3125 2247.109375 C 531.871094 2228.207031 550.253906 2207.882812 571.167969 2190.628906 C 794.488281 2006.433594 1044.960938 1949.226562 1324.023438 2033.554688 C 1463.308594 2075.648438 1588.761719 2146.632812 1708.296875 2228.023438 C 1837.359375 2315.90625 1964.042969 2407.304688 2093.65625 2494.351562 C 2224.625 2582.3125 2363.324219 2655.714844 2515.914062 2699.800781 C 2621.296875 2730.25 2728.519531 2746.496094 2838.34375 2735.84375 C 3006.597656 2719.527344 3149.988281 2648.730469 3272.261719 2533.523438 C 3352.128906 2458.277344 3416.015625 2370.496094 3471.085938 2276.050781 C 3482.398438 2256.652344 3492.445312 2236.511719 3503.074219 2216.710938 C 3500.371094 2214.390625 3497.671875 2212.070312 3494.96875 2209.746094 C 3492.371094 2215.078125 3490.933594 2221.539062 3487.003906 2225.574219 C 3413.980469 2300.617188 3331.632812 2363.425781 3238.953125 2412.328125 C 3033.28125 2520.851562 2819.488281 2545.765625 2596.148438 2475.039062 C 2454.964844 2430.332031 2329.125 2356.53125 2208.277344 2272.988281 C 2207.230469 2272.265625 2207.015625 2270.347656 2206.136719 2268.371094 C 2232.015625 2249.835938 2257.535156 2231.292969 2283.324219 2213.136719 C 2387.621094 2139.699219 2496.078125 2073.484375 2613.832031 2023.503906 C 2724.386719 1976.578125 2838.886719 1944.882812 2959.390625 1940.566406 C 3146.035156 1933.878906 3312.175781 1993.628906 3462.949219 2100.777344 C 3476.796875 2110.621094 3491.042969 2119.902344 3504.214844 2130.761719 C 3505.066406 2131 3505.921875 2131.234375 3506.777344 2131.46875 C 3506.09375 2130.882812 3505.410156 2130.296875 3504.9375 2127.382812 C 3413.421875 1976.917969 3282.59375 1877.25 3113.621094 1829.246094 C 2945.46875 1781.476562 2780.550781 1802.121094 2618.550781 1859.773438 C 2472.859375 1911.617188 2344.515625 1993.78125 2223.464844 2088.34375 C 2180.242188 2122.109375 2137.289062 2156.214844 2093.410156 2190.800781 C 2068.523438 2172.527344 2043.976562 2154.640625 2019.574219 2136.5625 C 1905.902344 2052.34375 1791.398438 1969.515625 1664.75 1905.066406 C 1531.492188 1837.253906 1392.492188 1789.699219 1242.003906 1781.167969 C 913.613281 1762.546875 643.277344 1951.800781 506.675781 2246.867188 C 505.980469 2247.792969 505.289062 2248.714844 505.421875 2250.621094 C 505.671875 2250.816406 505.917969 2251.015625 506.167969 2251.214844 C 505.550781 2250.660156 504.933594 2250.109375 506.542969 2250.78125 M 669.285156 2417.945312 C 667.578125 2418.058594 665.871094 2418.167969 664.160156 2418.28125 C 665.449219 2419.566406 666.738281 2420.855469 669.25 2423.90625 C 773.855469 2540.878906 899.664062 2627.472656 1045.867188 2683.8125 C 1203.96875 2744.730469 1364.84375 2757.71875 1528.757812 2707.625 C 1645.75 2671.871094 1753.972656 2618.023438 1855.574219 2550.492188 C 1888.078125 2528.894531 1919.554688 2505.753906 1953.316406 2482.046875 C 1946.308594 2476.746094 1941.75 2473.125 1937.011719 2469.746094 C 1907.328125 2448.570312 1877.3125 2427.84375 1848.066406 2406.082031 C 1839.167969 2399.460938 1833.25 2399.308594 1823.90625 2405.558594 C 1740.894531 2461.101562 1653.292969 2508.121094 1560.613281 2545.578125 C 1455.203125 2588.179688 1346.511719 2615.210938 1232.097656 2614.585938 C 1098.640625 2613.851562 972.855469 2580.222656 852.070312 2525.207031 C 787.953125 2496.003906 728.25 2459.339844 669.285156 2417.945312 M 2893.726562 1537.03125 C 2935.707031 1584.019531 2987.976562 1603.355469 3050.3125 1594.519531 C 3132.34375 1582.890625 3198.34375 1502.84375 3193.1875 1421.808594 C 3187.3125 1329.535156 3116.445312 1258.230469 3028.515625 1257.75 C 2957.542969 1257.359375 2902.835938 1288.128906 2871.160156 1351.898438 C 2839.171875 1416.296875 2848.277344 1478.375 2893.726562 1537.03125 Z M 2893.726562 1537.03125 "/>
<path style=" stroke:none;fill-rule:nonzero;fill:rgb(99.215686%,99.215686%,99.215686%);fill-opacity:1;" d="M 867.316406 3.265625 C 848.300781 6.199219 827.777344 9.3125 807.199219 12.035156 C 566.9375 43.824219 368.917969 153.085938 213.007812 338.066406 C 103.828125 467.605469 39.828125 617.921875 13.917969 784.800781 C 10.003906 810.007812 8.300781 835.554688 4.421875 861.628906 C 3.265625 576.203125 3.265625 290.089844 3.265625 3.265625 C 290.773438 3.265625 578.28125 3.265625 867.316406 3.265625 Z M 867.316406 3.265625 "/>
<path style=" stroke:none;fill-rule:nonzero;fill:rgb(99.215686%,99.215686%,99.215686%);fill-opacity:1;" d="M 3.265625 3235.214844 C 5.136719 3247.359375 7.550781 3260.988281 8.792969 3274.71875 C 23.960938 3442.472656 82.585938 3593.972656 184.160156 3727.628906 C 346.011719 3940.605469 560.34375 4063.453125 827.007812 4093.203125 C 837.261719 4094.347656 847.5 4095.671875 858.394531 4098.089844 C 574.023438 4099.265625 289 4099.265625 3.265625 4099.265625 C 3.265625 3811.761719 3.265625 3524.253906 3.265625 3235.214844 Z M 3.265625 3235.214844 "/>
<path style=" stroke:none;fill-rule:nonzero;fill:rgb(99.215686%,99.215686%,99.215686%);fill-opacity:1;" d="M 4099.265625 854.253906 C 4097.335938 843.230469 4094.832031 830.734375 4093.566406 818.113281 C 4078.230469 665.542969 4026.253906 526.210938 3938.085938 401.289062 C 3791.382812 193.429688 3592.316406 65.347656 3341.890625 18.722656 C 3304.609375 11.78125 3266.398438 9.832031 3227.886719 4.417969 C 3517.613281 3.265625 3808.078125 3.265625 4099.265625 3.265625 C 4099.265625 286.417969 4099.265625 569.570312 4099.265625 854.253906 Z M 4099.265625 854.253906 "/>
<path style=" stroke:none;fill-rule:nonzero;fill:rgb(99.215686%,99.215686%,99.215686%);fill-opacity:1;" d="M 3245.015625 4099.265625 C 3264.636719 4096.21875 3285.773438 4093.027344 3306.953125 4090.140625 C 3649.378906 4043.464844 3937.839844 3806.4375 4050.640625 3479.46875 C 4076.527344 3404.433594 4090.742188 3327.214844 4098.175781 3247.542969 C 4099.265625 3530.683594 4099.265625 3814.617188 4099.265625 4099.265625 C 3815.027344 4099.265625 3530.785156 4099.265625 3245.015625 4099.265625 Z M 3245.015625 4099.265625 "/>
<path style=" stroke:none;fill-rule:nonzero;fill:rgb(83.529413%,92.941177%,91.764706%);fill-opacity:1;" d="M 3505.101562 2129.441406 C 3491.042969 2119.902344 3476.796875 2110.621094 3462.949219 2100.777344 C 3312.175781 1993.628906 3146.035156 1933.878906 2959.390625 1940.566406 C 2838.886719 1944.882812 2724.386719 1976.578125 2613.832031 2023.503906 C 2496.078125 2073.484375 2387.621094 2139.699219 2283.324219 2213.136719 C 2257.535156 2231.292969 2232.015625 2249.835938 2206.136719 2268.371094 C 2207.015625 2270.347656 2207.230469 2272.265625 2208.277344 2272.988281 C 2329.125 2356.53125 2454.964844 2430.332031 2596.148438 2475.039062 C 2819.488281 2545.765625 3033.28125 2520.851562 3238.953125 2412.328125 C 3331.632812 2363.425781 3413.980469 2300.617188 3487.003906 2225.574219 C 3490.933594 2221.539062 3492.371094 2215.078125 3494.96875 2209.746094 C 3497.671875 2212.070312 3500.371094 2214.390625 3503.074219 2216.710938 C 3492.445312 2236.511719 3482.398438 2256.652344 3471.085938 2276.050781 C 3416.015625 2370.496094 3352.128906 2458.277344 3272.261719 2533.523438 C 3149.988281 2648.730469 3006.597656 2719.527344 2838.34375 2735.84375 C 2728.519531 2746.496094 2621.296875 2730.25 2515.914062 2699.800781 C 2363.324219 2655.714844 2224.625 2582.3125 2093.65625 2494.351562 C 1964.042969 2407.304688 1837.359375 2315.90625 1708.296875 2228.023438 C 1588.761719 2146.632812 1463.308594 2075.648438 1324.023438 2033.554688 C 1044.960938 1949.226562 794.488281 2006.433594 571.167969 2190.628906 C 550.253906 2207.882812 531.871094 2228.207031 510.734375 2246.980469 C 508.746094 2246.457031 508.339844 2246.058594 507.933594 2245.660156 C 643.277344 1951.800781 913.613281 1762.546875 1242.003906 1781.167969 C 1392.492188 1789.699219 1531.492188 1837.253906 1664.75 1905.066406 C 1791.398438 1969.515625 1905.902344 2052.34375 2019.574219 2136.5625 C 2043.976562 2154.640625 2068.523438 2172.527344 2093.410156 2190.800781 C 2137.289062 2156.214844 2180.242188 2122.109375 2223.464844 2088.34375 C 2344.515625 1993.78125 2472.859375 1911.617188 2618.550781 1859.773438 C 2780.550781 1802.121094 2945.46875 1781.476562 3113.621094 1829.246094 C 3282.59375 1877.25 3413.421875 1976.917969 3504.925781 2128.476562 C 3504.910156 2129.566406 3505.101562 2129.441406 3505.101562 2129.441406 Z M 3505.101562 2129.441406 "/>
<path style=" stroke:none;fill-rule:nonzero;fill:rgb(59.215689%,80.784315%,80.392158%);fill-opacity:1;" d="M 670.300781 2419.589844 C 728.25 2459.339844 787.953125 2496.003906 852.070312 2525.207031 C 972.855469 2580.222656 1098.640625 2613.851562 1232.097656 2614.585938 C 1346.511719 2615.210938 1455.203125 2588.179688 1560.613281 2545.578125 C 1653.292969 2508.121094 1740.894531 2461.101562 1823.90625 2405.558594 C 1833.25 2399.308594 1839.167969 2399.460938 1848.066406 2406.082031 C 1877.3125 2427.84375 1907.328125 2448.570312 1937.011719 2469.746094 C 1941.75 2473.125 1946.308594 2476.746094 1953.316406 2482.046875 C 1919.554688 2505.753906 1888.078125 2528.894531 1855.574219 2550.492188 C 1753.972656 2618.023438 1645.75 2671.871094 1528.757812 2707.625 C 1364.84375 2757.71875 1203.96875 2744.730469 1045.867188 2683.8125 C 899.664062 2627.472656 773.855469 2540.878906 669.210938 2422.390625 C 669.546875 2420.445312 669.925781 2420.015625 670.300781 2419.589844 Z M 670.300781 2419.589844 "/>
<path style=" stroke:none;fill-rule:nonzero;fill:rgb(83.137256%,92.941177%,91.764706%);fill-opacity:1;" d="M 2892.984375 1536.144531 C 2848.277344 1478.375 2839.171875 1416.296875 2871.160156 1351.898438 C 2902.835938 1288.128906 2957.542969 1257.359375 3028.515625 1257.75 C 3116.445312 1258.230469 3187.3125 1329.535156 3193.1875 1421.808594 C 3198.34375 1502.84375 3132.34375 1582.890625 3050.3125 1594.519531 C 2987.976562 1603.355469 2935.707031 1584.019531 2892.984375 1536.144531 Z M 2892.984375 1536.144531 "/>
<path style=" stroke:none;fill-rule:nonzero;fill:rgb(59.215689%,80.784315%,80.392158%);fill-opacity:1;" d="M 668.601562 2421.507812 C 666.738281 2420.855469 665.449219 2419.566406 664.160156 2418.277344 C 665.871094 2418.167969 667.578125 2418.058594 669.792969 2418.765625 C 669.925781 2420.015625 669.546875 2420.445312 668.601562 2421.507812 Z M 668.601562 2421.507812 "/>
<path style=" stroke:none;fill-rule:nonzero;fill:rgb(83.529413%,92.941177%,91.764706%);fill-opacity:1;" d="M 3504.820312 2129.636719 C 3505.410156 2130.296875 3506.09375 2130.882812 3506.777344 2131.46875 C 3505.921875 2131.234375 3505.066406 2131 3504.660156 2130.101562 C 3505.101562 2129.441406 3504.910156 2129.566406 3504.820312 2129.636719 Z M 3504.820312 2129.636719 "/>
<path style=" stroke:none;fill-rule:nonzero;fill:rgb(83.529413%,92.941177%,91.764706%);fill-opacity:1;" d="M 504.59375 2249.640625 C 505.289062 2248.714844 505.980469 2247.792969 507.304688 2246.265625 C 508.339844 2246.058594 508.746094 2246.457031 509.753906 2247.460938 C 509.082031 2248.972656 507.8125 2249.878906 505.519531 2250.183594 C 504.496094 2249.582031 504.59375 2249.640625 504.59375 2249.640625 Z M 504.59375 2249.640625 "/>
<path style=" stroke:none;fill-rule:nonzero;fill:rgb(83.529413%,92.941177%,91.764706%);fill-opacity:1;" d="M 504.40625 2249.570312 C 504.933594 2250.109375 505.550781 2250.660156 506.167969 2251.214844 C 505.917969 2251.015625 505.671875 2250.816406 505.007812 2250.128906 C 504.59375 2249.640625 504.496094 2249.582031 504.40625 2249.570312 Z M 504.40625 2249.570312 "/>
</g>
</svg>
