<?xml version="1.0" encoding="UTF-8"?>
<svg xmlns="http://www.w3.org/2000/svg" xmlns:xlink="http://www.w3.org/1999/xlink" width="48px" height="48px" viewBox="0 0 48 48" version="1.1">
<g id="surface1">
<path style=" stroke:none;fill-rule:nonzero;fill:rgb(1.960784%,31.37255%,36.470589%);fill-opacity:1;" d="M 48.039062 10.027344 C 48.039062 19.355469 48.039062 28.683594 48.027344 38.039062 C 47.9375 38.992188 47.773438 39.894531 47.46875 40.773438 C 46.148438 44.605469 42.765625 47.382812 38.753906 47.929688 C 38.503906 47.964844 38.257812 48.003906 38.007812 48.039062 C 28.707031 48.039062 19.40625 48.039062 10.078125 48.023438 C 9.929688 47.996094 9.8125 47.980469 9.691406 47.96875 C 6.566406 47.617188 4.054688 46.179688 2.15625 43.683594 C 0.96875 42.117188 0.28125 40.339844 0.101562 38.375 C 0.0898438 38.214844 0.0585938 38.054688 0.0390625 37.894531 C 0.0390625 28.644531 0.0390625 19.390625 0.0507812 10.113281 C 0.0976562 9.792969 0.117188 9.492188 0.164062 9.195312 C 0.464844 7.242188 1.214844 5.480469 2.496094 3.960938 C 4.324219 1.792969 6.644531 0.511719 9.460938 0.140625 C 9.699219 0.109375 9.941406 0.0742188 10.183594 0.0390625 C 19.382812 0.0390625 28.582031 0.0390625 37.808594 0.0507812 C 38.277344 0.113281 38.726562 0.136719 39.164062 0.21875 C 42.097656 0.765625 44.429688 2.265625 46.148438 4.703125 C 47.183594 6.167969 47.792969 7.800781 47.972656 9.585938 C 47.984375 9.734375 48.015625 9.882812 48.039062 10.027344 M 5.9375 26.375 C 5.949219 26.367188 5.964844 26.355469 6.003906 26.332031 C 6.234375 26.113281 6.449219 25.875 6.695312 25.671875 C 9.308594 23.511719 12.246094 22.84375 15.515625 23.832031 C 17.148438 24.324219 18.617188 25.15625 20.019531 26.109375 C 21.53125 27.140625 23.015625 28.210938 24.535156 29.230469 C 26.070312 30.261719 27.695312 31.121094 29.484375 31.636719 C 30.71875 31.996094 31.976562 32.183594 33.261719 32.0625 C 35.234375 31.871094 36.914062 31.039062 38.347656 29.691406 C 39.28125 28.808594 40.03125 27.777344 40.675781 26.671875 C 40.808594 26.445312 40.925781 26.210938 41.050781 25.976562 C 41.019531 25.949219 40.988281 25.921875 40.957031 25.894531 C 40.925781 25.957031 40.910156 26.035156 40.863281 26.082031 C 40.007812 26.960938 39.042969 27.695312 37.957031 28.269531 C 35.546875 29.542969 33.039062 29.832031 30.421875 29.003906 C 28.769531 28.480469 27.292969 27.617188 25.878906 26.636719 C 25.867188 26.628906 25.863281 26.605469 25.851562 26.582031 C 26.15625 26.367188 26.457031 26.148438 26.757812 25.933594 C 27.980469 25.074219 29.25 24.296875 30.628906 23.714844 C 31.925781 23.164062 33.269531 22.792969 34.679688 22.742188 C 36.867188 22.664062 38.816406 23.363281 40.582031 24.617188 C 40.742188 24.734375 40.910156 24.84375 41.066406 24.96875 C 41.074219 24.972656 41.085938 24.976562 41.09375 24.976562 C 41.085938 24.972656 41.078125 24.964844 41.074219 24.929688 C 40 23.167969 38.46875 22 36.488281 21.4375 C 34.515625 20.875 32.585938 21.117188 30.6875 21.792969 C 28.980469 22.402344 27.476562 23.363281 26.054688 24.472656 C 25.550781 24.867188 25.046875 25.269531 24.53125 25.671875 C 24.242188 25.460938 23.953125 25.25 23.667969 25.039062 C 22.335938 24.050781 20.992188 23.082031 19.507812 22.324219 C 17.945312 21.53125 16.316406 20.972656 14.554688 20.875 C 10.707031 20.65625 7.539062 22.871094 5.9375 26.332031 C 5.929688 26.339844 5.921875 26.351562 5.921875 26.375 C 5.925781 26.375 5.929688 26.378906 5.929688 26.382812 C 5.925781 26.375 5.917969 26.367188 5.9375 26.375 M 7.84375 28.335938 C 7.824219 28.335938 7.804688 28.339844 7.78125 28.339844 C 7.796875 28.355469 7.8125 28.371094 7.84375 28.40625 C 9.070312 29.777344 10.542969 30.789062 12.257812 31.449219 C 14.109375 32.164062 15.996094 32.316406 17.914062 31.730469 C 19.285156 31.3125 20.554688 30.679688 21.746094 29.886719 C 22.125 29.636719 22.496094 29.363281 22.890625 29.085938 C 22.808594 29.023438 22.753906 28.980469 22.699219 28.941406 C 22.351562 28.695312 22 28.453125 21.65625 28.195312 C 21.554688 28.117188 21.484375 28.117188 21.375 28.191406 C 20.402344 28.839844 19.375 29.390625 18.289062 29.832031 C 17.054688 30.332031 15.78125 30.648438 14.4375 30.640625 C 12.875 30.632812 11.402344 30.238281 9.984375 29.59375 C 9.234375 29.25 8.535156 28.820312 7.84375 28.335938 M 33.910156 18.011719 C 34.402344 18.5625 35.015625 18.789062 35.746094 18.6875 C 36.707031 18.550781 37.480469 17.613281 37.421875 16.660156 C 37.351562 15.582031 36.519531 14.746094 35.492188 14.738281 C 34.660156 14.734375 34.019531 15.09375 33.644531 15.84375 C 33.273438 16.597656 33.378906 17.324219 33.910156 18.011719 Z M 33.910156 18.011719 "/>
<path style=" stroke:none;fill-rule:nonzero;fill:rgb(99.215686%,99.215686%,99.215686%);fill-opacity:1;" d="M 10.164062 0.0390625 C 9.941406 0.0742188 9.699219 0.109375 9.460938 0.140625 C 6.644531 0.511719 4.324219 1.792969 2.496094 3.960938 C 1.214844 5.480469 0.464844 7.242188 0.164062 9.195312 C 0.117188 9.492188 0.0976562 9.792969 0.0507812 10.097656 C 0.0390625 6.753906 0.0390625 3.398438 0.0390625 0.0390625 C 3.40625 0.0390625 6.777344 0.0390625 10.164062 0.0390625 Z M 10.164062 0.0390625 "/>
<path style=" stroke:none;fill-rule:nonzero;fill:rgb(99.215686%,99.215686%,99.215686%);fill-opacity:1;" d="M 0.0390625 37.914062 C 0.0585938 38.054688 0.0898438 38.214844 0.101562 38.375 C 0.28125 40.339844 0.96875 42.117188 2.15625 43.683594 C 4.054688 46.179688 6.566406 47.617188 9.691406 47.96875 C 9.8125 47.980469 9.929688 47.996094 10.058594 48.023438 C 6.726562 48.039062 3.386719 48.039062 0.0390625 48.039062 C 0.0390625 44.667969 0.0390625 41.300781 0.0390625 37.914062 Z M 0.0390625 37.914062 "/>
<path style=" stroke:none;fill-rule:nonzero;fill:rgb(99.215686%,99.215686%,99.215686%);fill-opacity:1;" d="M 48.039062 10.011719 C 48.015625 9.882812 47.984375 9.734375 47.972656 9.585938 C 47.792969 7.800781 47.183594 6.167969 46.148438 4.703125 C 44.429688 2.265625 42.097656 0.765625 39.164062 0.21875 C 38.726562 0.136719 38.277344 0.113281 37.828125 0.0507812 C 41.222656 0.0390625 44.625 0.0390625 48.039062 0.0390625 C 48.039062 3.355469 48.039062 6.675781 48.039062 10.011719 Z M 48.039062 10.011719 "/>
<path style=" stroke:none;fill-rule:nonzero;fill:rgb(99.215686%,99.215686%,99.215686%);fill-opacity:1;" d="M 38.027344 48.039062 C 38.257812 48.003906 38.503906 47.964844 38.753906 47.929688 C 42.765625 47.382812 46.148438 44.605469 47.46875 40.773438 C 47.773438 39.894531 47.9375 38.992188 48.027344 38.058594 C 48.039062 41.375 48.039062 44.703125 48.039062 48.039062 C 44.707031 48.039062 41.375 48.039062 38.027344 48.039062 Z M 38.027344 48.039062 "/>
<path style=" stroke:none;fill-rule:nonzero;fill:rgb(83.529413%,92.941177%,91.764706%);fill-opacity:1;" d="M 41.074219 24.953125 C 40.910156 24.84375 40.742188 24.734375 40.582031 24.617188 C 38.816406 23.363281 36.867188 22.664062 34.679688 22.742188 C 33.269531 22.792969 31.925781 23.164062 30.628906 23.714844 C 29.25 24.296875 27.980469 25.074219 26.757812 25.933594 C 26.457031 26.148438 26.15625 26.367188 25.851562 26.582031 C 25.863281 26.605469 25.867188 26.628906 25.878906 26.636719 C 27.292969 27.617188 28.769531 28.480469 30.421875 29.003906 C 33.039062 29.832031 35.546875 29.542969 37.957031 28.269531 C 39.042969 27.695312 40.007812 26.960938 40.863281 26.082031 C 40.910156 26.035156 40.925781 25.957031 40.957031 25.894531 C 40.988281 25.921875 41.019531 25.949219 41.050781 25.976562 C 40.925781 26.210938 40.808594 26.445312 40.675781 26.671875 C 40.03125 27.777344 39.28125 28.808594 38.347656 29.691406 C 36.914062 31.039062 35.234375 31.871094 33.261719 32.0625 C 31.976562 32.183594 30.71875 31.996094 29.484375 31.636719 C 27.695312 31.121094 26.070312 30.261719 24.535156 29.230469 C 23.015625 28.210938 21.53125 27.140625 20.019531 26.109375 C 18.617188 25.15625 17.148438 24.324219 15.515625 23.832031 C 12.246094 22.84375 9.308594 23.511719 6.695312 25.671875 C 6.449219 25.875 6.234375 26.113281 5.984375 26.332031 C 5.960938 26.324219 5.957031 26.320312 5.953125 26.316406 C 7.539062 22.871094 10.707031 20.65625 14.554688 20.875 C 16.316406 20.972656 17.945312 21.53125 19.507812 22.324219 C 20.992188 23.082031 22.335938 24.050781 23.667969 25.039062 C 23.953125 25.25 24.242188 25.460938 24.53125 25.671875 C 25.046875 25.269531 25.550781 24.867188 26.054688 24.472656 C 27.476562 23.363281 28.980469 22.402344 30.6875 21.792969 C 32.585938 21.117188 34.515625 20.875 36.488281 21.4375 C 38.46875 22 40 23.167969 41.074219 24.941406 C 41.074219 24.957031 41.074219 24.953125 41.074219 24.953125 Z M 41.074219 24.953125 "/>
<path style=" stroke:none;fill-rule:nonzero;fill:rgb(59.215689%,80.784315%,80.392158%);fill-opacity:1;" d="M 7.855469 28.355469 C 8.535156 28.820312 9.234375 29.25 9.984375 29.59375 C 11.402344 30.238281 12.875 30.632812 14.4375 30.640625 C 15.78125 30.648438 17.054688 30.332031 18.289062 29.832031 C 19.375 29.390625 20.402344 28.839844 21.375 28.191406 C 21.484375 28.117188 21.554688 28.117188 21.65625 28.195312 C 22 28.453125 22.351562 28.695312 22.699219 28.941406 C 22.753906 28.980469 22.808594 29.023438 22.890625 29.085938 C 22.496094 29.363281 22.125 29.636719 21.746094 29.886719 C 20.554688 30.679688 19.285156 31.3125 17.914062 31.730469 C 15.996094 32.316406 14.109375 32.164062 12.257812 31.449219 C 10.542969 30.789062 9.070312 29.777344 7.84375 28.386719 C 7.847656 28.363281 7.851562 28.359375 7.855469 28.355469 Z M 7.855469 28.355469 "/>
<path style=" stroke:none;fill-rule:nonzero;fill:rgb(83.137256%,92.941177%,91.764706%);fill-opacity:1;" d="M 33.902344 18 C 33.378906 17.324219 33.273438 16.597656 33.644531 15.84375 C 34.019531 15.09375 34.660156 14.734375 35.492188 14.738281 C 36.519531 14.746094 37.351562 15.582031 37.421875 16.660156 C 37.480469 17.613281 36.707031 18.550781 35.746094 18.6875 C 35.015625 18.789062 34.402344 18.5625 33.902344 18 Z M 33.902344 18 "/>
<path style=" stroke:none;fill-rule:nonzero;fill:rgb(59.215689%,80.784315%,80.392158%);fill-opacity:1;" d="M 7.835938 28.378906 C 7.8125 28.371094 7.796875 28.355469 7.78125 28.339844 C 7.804688 28.339844 7.824219 28.335938 7.847656 28.34375 C 7.851562 28.359375 7.847656 28.363281 7.835938 28.378906 Z M 7.835938 28.378906 "/>
<path style=" stroke:none;fill-rule:nonzero;fill:rgb(83.529413%,92.941177%,91.764706%);fill-opacity:1;" d="M 41.070312 24.957031 C 41.078125 24.964844 41.085938 24.972656 41.09375 24.976562 C 41.085938 24.976562 41.074219 24.972656 41.070312 24.960938 C 41.074219 24.953125 41.074219 24.957031 41.070312 24.957031 Z M 41.070312 24.957031 "/>
<path style=" stroke:none;fill-rule:nonzero;fill:rgb(83.529413%,92.941177%,91.764706%);fill-opacity:1;" d="M 5.914062 26.363281 C 5.921875 26.351562 5.929688 26.339844 5.945312 26.324219 C 5.957031 26.320312 5.960938 26.324219 5.972656 26.335938 C 5.964844 26.355469 5.949219 26.367188 5.925781 26.371094 C 5.910156 26.363281 5.914062 26.363281 5.914062 26.363281 Z M 5.914062 26.363281 "/>
<path style=" stroke:none;fill-rule:nonzero;fill:rgb(83.529413%,92.941177%,91.764706%);fill-opacity:1;" d="M 5.910156 26.363281 C 5.917969 26.367188 5.925781 26.375 5.929688 26.382812 C 5.929688 26.378906 5.925781 26.375 5.917969 26.367188 C 5.914062 26.363281 5.910156 26.363281 5.910156 26.363281 Z M 5.910156 26.363281 "/>
</g>
</svg>
